<?xml version="1.0" encoding="utf-8"?>
<!-- Generator: Adobe Illustrator 26.0.2, SVG Export Plug-In . SVG Version: 6.00 Build 0)  -->
<svg version="1.1" id="Layer_1" xmlns="http://www.w3.org/2000/svg" xmlns:xlink="http://www.w3.org/1999/xlink" x="0px" y="0px"
	 viewBox="0 0 295.7 295.7" style="enable-background:new 0 0 295.7 295.7;" xml:space="preserve">
<style type="text/css">
	.st0{fill:#1D71B8;}
	.st1{fill:#F7DF00;}
	.st2{fill:#36A9E1;}
	.st3{fill:#F39200;}
	.st4{fill:#00A19A;}
	.st5{fill:#E94E1B;}
	.st6{fill:#188345;}
	.st7{fill:#E6332A;}
	.st8{fill:#006633;}
	.st9{fill:#BE1622;}
	.st10{fill:#008D36;}
	.st11{fill:#A3195B;}
	.st12{fill:#3AAA35;}
	.st13{fill:#951B81;}
	.st14{fill:#95C11F;}
	.st15{fill:#662483;}
	.st16{fill:#DEDC00;}
	.st17{fill:#2D2E83;}
</style>
<path class="st0" d="M106,147.8c0,9.2-73.6,16.6-82.8,16.6S6.6,157,6.6,147.8c0-9.2,7.4-16.6,16.6-16.6S106,138.7,106,147.8z"/>
<path class="st1" d="M189.5,147.8c0,9.2,73.6,16.6,82.8,16.6c9.2,0,16.6-7.4,16.6-16.6c0-9.2-7.4-16.6-16.6-16.6
	C263.1,131.2,189.5,138.7,189.5,147.8z"/>
<path class="st2" d="M108.5,162.1c3.1,8.6-63.5,40.8-72.1,43.9c-8.6,3.1-18.1-1.3-21.3-9.9s1.3-18.1,9.9-21.3
	S105.3,153.5,108.5,162.1z"/>
<path class="st3" d="M187,133.6c3.1,8.6,74.9-9.6,83.5-12.7c8.6-3.1,13.1-12.7,9.9-21.3s-12.7-13.1-21.3-9.9
	C250.5,92.8,183.9,124.9,187,133.6z"/>
<path class="st4" d="M115.7,174.7c5.9,7-45.7,60-52.7,65.9c-7,5.9-17.5,5-23.4-2c-5.9-7-5-17.5,2-23.4
	C48.7,209.3,109.8,167.7,115.7,174.7z"/>
<path class="st5" d="M179.7,121c5.9,7,67.1-34.6,74.1-40.5c7-5.9,7.9-16.4,2-23.4c-5.9-7-16.4-7.9-23.4-2
	C225.5,60.9,173.9,114,179.7,121z"/>
<path class="st6" d="M126.8,184c7.9,4.6-22.4,72.1-27,80c-4.6,7.9-14.7,10.7-22.7,6.1c-7.9-4.6-10.7-14.7-6.1-22.7
	C75.7,239.5,118.9,179.4,126.8,184z"/>
<path class="st7" d="M168.6,111.7c7.9,4.6,51.2-55.5,55.8-63.4c4.6-7.9,1.9-18.1-6.1-22.7c-7.9-4.6-18.1-1.9-22.7,6.1
	S160.7,107.1,168.6,111.7z"/>
<path class="st8" d="M140.5,189c9,1.6,3.6,75.4,2,84.4c-1.6,9-10.2,15.1-19.2,13.5c-9-1.6-15.1-10.2-13.5-19.2
	C111.3,258.6,131.5,187.4,140.5,189z"/>
<path class="st9" d="M155,106.7c9,1.6,29.1-69.6,30.7-78.7s-4.4-17.6-13.5-19.2c-9-1.6-17.6,4.4-19.2,13.5
	C151.4,31.3,146,105.1,155,106.7z"/>
<path class="st10" d="M155,189c9-1.6,29.1,69.6,30.7,78.7c1.6,9-4.4,17.6-13.5,19.2c-9,1.6-17.6-4.4-19.2-13.5
	C151.4,264.4,146,190.6,155,189z"/>
<path class="st11" d="M140.5,106.7c9-1.6,3.6-75.4,2-84.4c-1.6-9-10.2-15.1-19.2-13.5c-9,1.6-15.1,10.2-13.5,19.2
	S131.5,108.3,140.5,106.7z"/>
<path class="st12" d="M168.6,184c7.9-4.6,51.2,55.5,55.8,63.4c4.6,7.9,1.9,18.1-6.1,22.7c-7.9,4.6-18.1,1.9-22.7-6.1
	C191.1,256.1,160.7,188.6,168.6,184z"/>
<path class="st13" d="M126.8,111.7c7.9-4.6-22.4-72.1-27-80c-4.6-7.9-14.7-10.7-22.7-6.1s-10.7,14.7-6.1,22.7
	S118.9,116.2,126.8,111.7z"/>
<path class="st14" d="M179.7,174.7c5.9-7,67.1,34.6,74.1,40.5c7,5.9,7.9,16.4,2,23.4c-5.9,7-16.4,7.9-23.4,2
	C225.5,234.7,173.9,181.7,179.7,174.7z"/>
<path class="st15" d="M115.7,121c5.9-7-45.7-60-52.7-65.9s-17.5-5-23.4,2s-5,17.5,2,23.4C48.7,86.4,109.8,128,115.7,121z"/>
<path class="st16" d="M187,162.1c3.1-8.6,74.9,9.6,83.5,12.7c8.6,3.1,13.1,12.7,9.9,21.3s-12.7,13.1-21.3,9.9
	C250.5,202.9,183.9,170.8,187,162.1z"/>
<path class="st17" d="M108.5,133.6c3.1-8.6-63.5-40.8-72.1-43.9c-8.6-3.1-18.1,1.3-21.3,9.9s1.3,18.1,9.9,21.3
	C33.6,124,105.3,142.2,108.5,133.6z"/>
</svg>
