<?xml version="1.0" encoding="utf-8"?>
<!-- Generator: Adobe Illustrator 26.0.3, SVG Export Plug-In . SVG Version: 6.00 Build 0)  -->
<svg version="1.1" id="Layer_1" xmlns="http://www.w3.org/2000/svg" xmlns:xlink="http://www.w3.org/1999/xlink" x="0px" y="0px"
	 viewBox="0 0 54.8 54.8" style="enable-background:new 0 0 54.8 54.8;" xml:space="preserve">
<style type="text/css">
	.st0{fill:#FFFFFF;}
</style>
<path class="st0" d="M38.3,17H16.5c-0.4,0-0.8,0.2-1.1,0.5c-0.3,0.3-0.4,0.7-0.4,1.1l2,25.3c0.1,0.8,0.7,1.4,1.5,1.4h17.9
	c0.8,0,1.4-0.6,1.5-1.4l2-25.3c0-0.4-0.1-0.8-0.4-1.1C39.1,17.2,38.7,17,38.3,17z M35,42.3H19.9L18.1,20h18.6L35,42.3z M23.3,39.7
	c0,0,0.1,0,0.1,0c0.8-0.1,1.4-0.8,1.4-1.6l-1-14.1c-0.1-0.8-0.8-1.4-1.6-1.4c-0.8,0.1-1.4,0.8-1.4,1.6l1,14.1
	C21.8,39.1,22.5,39.7,23.3,39.7z M31.5,39.7c0,0,0.1,0,0.1,0c0.8,0,1.4-0.6,1.5-1.4l1-14.1c0.1-0.8-0.6-1.5-1.4-1.6
	c-0.8-0.1-1.5,0.6-1.6,1.4l-1,14.1C30,38.9,30.6,39.6,31.5,39.7z M27.4,39.7c0.8,0,1.5-0.7,1.5-1.5V24c0-0.8-0.7-1.5-1.5-1.5
	s-1.5,0.7-1.5,1.5v14.1C25.9,39,26.6,39.7,27.4,39.7z M40,12.8h-7.3l-1.8-4C30.7,8.3,30.2,8,29.6,8h-4.7c-0.6,0-1.1,0.3-1.3,0.8
	l-2,4h-6.8c-0.8,0-1.5,0.7-1.5,1.5c0,0.8,0.7,1.5,1.5,1.5H40c0.8,0,1.5-0.7,1.5-1.5C41.5,13.5,40.8,12.8,40,12.8z M24.9,12.8
	l0.9-1.9h2.8l0.9,1.9H24.9z"/>
</svg>
