<?xml version="1.0" encoding="utf-8"?>
<!-- Generator: Adobe Illustrator 26.0.3, SVG Export Plug-In . SVG Version: 6.00 Build 0)  -->
<svg version="1.1" id="Layer_1" xmlns="http://www.w3.org/2000/svg" xmlns:xlink="http://www.w3.org/1999/xlink" x="0px" y="0px"
	 viewBox="0 0 54.8 54.8" style="enable-background:new 0 0 54.8 54.8;" xml:space="preserve">
<style type="text/css">
	.st0{fill:#FFFFFF;}
</style>
<path class="st0" d="M16.9,27.3l-1,4.6c-0.1,0.6,0,1.1,0.4,1.6c0.4,0.4,0.9,0.7,1.5,0.6l3.8-0.3l0.1,3.9c0,0.6,0.3,1.1,0.8,1.4
	c0.5,0.3,1.1,0.4,1.6,0.2l4.4-1.6c0.3-0.1,0.5-0.3,0.7-0.5l16.1-17.8c0.7-0.7,0.6-1.9-0.1-2.5c-0.7-0.7-1.9-0.6-2.5,0.1L26.9,34.6
	l-1.7,0.6l-0.1-2.6l15.6-17.2c0.7-0.7,0.6-1.9-0.1-2.5c-0.7-0.7-1.9-0.6-2.5,0.1L22.4,30.2l-2.5,0.2l0.4-1.8l15.8-17.4
	c0.7-0.7,0.6-1.9-0.1-2.5C35.3,8,34.1,8,33.5,8.8L17.4,26.5C17.2,26.7,17,27,16.9,27.3z M21.1,38.3l-3.5-3.2c-0.4-0.4-1-0.5-1.6-0.4
	c-0.6,0.1-1,0.5-1.3,1.1l-2.7,6.4c-0.3,0.7-0.1,1.5,0.5,2s1.4,0.6,2,0.3l6.2-3.3c0.5-0.3,0.9-0.8,0.9-1.4
	C21.7,39.3,21.5,38.7,21.1,38.3z"/>
</svg>
